<svg width="95" height="101" viewBox="0 0 95 101" fill="none" xmlns="http://www.w3.org/2000/svg">
<path d="M72.7026 19.8573C78.2199 24.5886 80.5494 32.1396 79.7017 40.6667C78.8544 49.1898 74.8318 58.5899 67.7876 66.8041C60.7436 75.018 52.0671 80.4264 43.773 82.5633C35.4748 84.7012 27.6569 83.5501 22.1397 78.8188C16.6227 74.0875 14.2937 66.537 15.1414 58.01C15.9887 49.487 20.0109 40.0875 27.0549 31.8734C34.099 23.6592 42.7758 18.2503 51.0701 16.1134C59.3681 13.9756 67.1855 15.1261 72.7026 19.8573Z" stroke="#6AA1EE" stroke-width="2"/>
<path d="M72.7026 22.9603C78.2199 27.6916 80.5494 35.2426 79.7017 43.7697C78.8544 52.2928 74.8318 61.6929 67.7876 69.9071C60.7436 78.1211 52.0671 83.5294 43.773 85.6663C35.4748 87.8042 27.6569 86.6532 22.1397 81.9218C16.6227 77.1905 14.2937 69.6401 15.1414 61.1131C15.9887 52.59 20.0109 43.1906 27.0549 34.9764C34.099 26.7622 42.7758 21.3534 51.0701 19.2165C59.3681 17.0787 67.1855 18.2292 72.7026 22.9603Z" stroke="#6AA1EE" stroke-width="2"/>
<path d="M61.6425 32.7548C64.6716 35.3525 65.9856 39.5284 65.509 44.3233C65.0326 49.114 62.7673 54.4239 58.7776 59.0764C54.7878 63.729 49.8848 66.778 45.2227 67.9792C40.5565 69.1814 36.2291 68.5194 33.1999 65.9217C30.1708 63.324 28.8568 59.1481 29.3334 54.3533C29.8098 49.5625 32.0756 44.2519 36.0654 39.5994C40.0551 34.947 44.9577 31.8986 49.6197 30.6973C54.2859 29.4952 58.6133 30.1572 61.6425 32.7548Z" stroke="#6AA1EE" stroke-width="2"/>
<path d="M61.6424 35.4989C64.6643 38.0905 65.9504 42.2982 65.4199 47.1622C64.8898 52.0205 62.5474 57.4244 58.4698 62.1794C54.3921 66.9344 49.4081 70.0739 44.6873 71.3385C39.9611 72.6044 35.6064 71.975 32.5844 69.3835C29.5625 66.7919 28.2764 62.5842 28.8069 57.7202C29.337 52.8618 31.6799 47.4574 35.7576 42.7023C39.8353 37.9475 44.8188 34.8084 49.5395 33.5439C54.2657 32.2779 58.6204 32.9075 61.6424 35.4989Z" stroke="#6AA1EE" stroke-width="2"/>
<path d="M61.6425 32.7548C64.6716 35.3525 65.9856 39.5284 65.509 44.3233C65.0326 49.114 62.7673 54.4239 58.7776 59.0764C54.7878 63.729 49.8848 66.778 45.2227 67.9792C40.5565 69.1814 36.2291 68.5194 33.1999 65.9217C30.1708 63.324 28.8568 59.1481 29.3334 54.3533C29.8098 49.5625 32.0756 44.2519 36.0654 39.5994C40.0551 34.947 44.9577 31.8986 49.6197 30.6973C54.2859 29.4952 58.6133 30.1572 61.6425 32.7548Z" stroke="#6AA1EE" stroke-width="2"/>
<path d="M60.46 37.3482C62.603 39.186 63.5557 42.1597 63.2111 45.6253C62.867 49.0869 61.2278 52.9411 58.3256 56.3253C55.4235 59.7095 51.8643 61.9172 48.4956 62.7851C45.123 63.6541 42.0389 63.1659 39.8958 61.3281C37.753 59.4903 36.8001 56.5166 37.1447 53.0511C37.4889 49.5896 39.1289 45.7357 42.0309 42.3517C44.9329 38.9676 48.4916 36.7592 51.8602 35.8912C55.2327 35.0224 58.3169 35.5107 60.46 37.3482Z" stroke="#6AA1EE" stroke-width="2"/>
</svg>
